<svg xmlns="http://www.w3.org/2000/svg" version="1.1" xmlns:xlink="http://www.w3.org/1999/xlink" xmlns:svgjs="http://svgjs.dev/svgjs" viewBox="0 0 800 400"><path d="M41.704036712646484,360.5381164550781C58.2570994122823,359.86248326619466,100.20627150853475,357.11959045410157,129.59640502929688,356.95068359375C158.98653855005898,356.78177673339843,179.17787284851073,370.113611907959,197.75784301757812,359.6412658691406C216.33781318664552,349.16891983032224,225.04184618632,325.16145245869956,228.25111389160156,301.3453063964844C231.46038159688314,277.5291603342692,235.0672599665324,258.01345186869304,214.79820251464844,233.18385314941406C194.52914506276448,208.3542544301351,148.32884550730387,180.82361808776855,120.62779998779297,169.50672912597656C92.92675446828207,158.18984016418457,83.92825117111207,162.28401461283366,67.71300506591797,173.09417724609375C51.49775896072388,183.90433987935384,29.12406534830729,209.00148864746095,34.52914810180664,226.90582275390625C39.93423085530599,244.81015686035155,70.23169225692749,267.9925282541911,96.41255950927734,268.16143798828125C122.5934267616272,268.3303477223714,149.21973445892334,249.9297430674235,173.5426025390625,227.8026885986328C197.86547061920166,205.67563412984214,206.98056432088217,180.23169573465984,225.56053161621094,150.6726531982422C244.1404989115397,121.11361066182455,266.79221338907877,94.83707390467325,272.1972961425781,70.85202026367188C277.6023788960775,46.866966622670496,280.4409511566162,34.46636853853862,254.2600860595703,23.31838607788086C228.0792209625244,12.170403617223105,165.10761903127033,12.165919726689657,133.18385314941406,11.65919303894043C101.26008726755778,11.152466351191203,85.42900062561036,4.074738117853801,84.75336456298828,20.6278018951416C84.0777285003662,37.180865672429405,98.6860918045044,78.26905445416769,129.59640502929688,99.55156707763672C160.50671825408935,120.83407970110575,215.09715861002604,123.32885595957438,248.87892150878906,133.63229370117188C282.6606844075521,143.93573144276937,285.9969971466064,146.49028139750163,308.9685974121094,154.2600860595703C331.94019767761233,162.029890721639,346.19133127848306,167.2869958750407,370.8520202636719,174.8878936767578C395.5127092488607,182.48879147847492,416.9387114461263,187.6935737101237,439.9103088378906,194.61883544921875C462.88190622965493,201.5440971883138,478.80566767374677,204.90284294128418,492.8251037597656,211.65919494628906C506.8445398457845,218.41554695129395,516.8834241231283,224.75037152608235,514.3497924804688,230.49327087402344C511.81616083780926,236.23617022196453,489.50672470092775,246.37518618265787,479.3721923828125,242.1524658203125C469.23766006469725,237.92974545796713,462.39611490885414,219.55754552205403,460.5381164550781,208.07174682617188C458.6801180013021,196.58594813028972,460.8923662821452,187.4155497487386,469.5067138671875,181.16592407226562C478.1210614522298,174.91629839579264,492.5963985188802,173.36771469116212,506.27801513671875,174.8878936767578C519.9596317545573,176.4080726623535,530.32884765625,179.4409609222412,542.1524658203125,189.2376708984375C553.976083984375,199.0343808746338,567.2002901204427,214.57547826131184,569.0582885742188,226.90582275390625C570.9162870279948,239.23616724650066,559.4499266560872,243.3916347757975,552.0179443359375,254.70852661132812C544.5859620157878,266.02541844685874,535.8460583496094,274.6651694234212,529.596435546875,286.9955139160156C523.3468127441406,299.32585840861003,513.5979362996419,310.7204889424642,518.8341064453125,320.17938232421875C524.0702765909831,329.6382757059733,541.8595053100586,331.1390106201172,557.3991088867188,337.2197265625C572.9387124633789,343.3004425048828,573.1375083414714,346.554560546875,601.3452758789062,352.46636962890625C629.5530434163411,358.3781787109375,677.1090882364908,371.8191338602702,707.1748657226562,368.60986328125C737.2406432088217,365.4005927022298,748.825128885905,351.64124313354495,760.986572265625,335.4259948730469C773.148015645345,319.2107466125488,771.4110876464844,306.3273402659098,771.7489013671875,282.5111999511719C772.0867150878906,258.69505963643394,766.8340840657552,235.8251138305664,762.7802734375,208.96861267089844C758.7264628092448,182.11211151123047,758.5007712809245,159.5037331008911,750.2242431640625,139.91030883789062C741.9477150472005,120.31688457489014,737.5829863484701,118.27652734120687,718.8341064453125,104.93273162841797C700.0852265421549,91.58893591562907,679.2182612101237,79.86845955530802,650.6726684570312,69.05829620361328C622.1270757039388,58.24813285191854,596.1479996236166,52.09417257944743,567.2645874023438,47.533634185791016C538.381175181071,42.9730957921346,526.3617368062337,43.82959543863932,497.3094177246094,44.843048095703125C468.25709864298506,45.85650075276693,439.6920803833008,46.66517162322998,413.0044860839844,52.914798736572266C386.316891784668,59.16442584991455,369.4559006754557,65.52765680313111,355.6053771972656,78.02690887451172C341.7548537190755,90.52616094589233,341.99551518758136,93.77727837880452,339.4618835449219,119.28250885009766C336.9282519022624,144.78773932139077,336.5784762064616,190.81912914276123,342.1524658203125,213.45291137695312C347.7264554341634,236.08669361114502,353.0119529215495,224.4290005493164,369.05828857421875,239.46188354492188C385.104624226888,254.49476654052734,412.82808563232425,271.48429117838543,427.354248046875,293.2735290527344C441.88041046142575,315.0627669270833,452.4379772949219,339.61733683268227,446.1883544921875,355.1569519042969C439.9387316894531,370.6965669759115,417.64873962402345,372.5754946899414,394.17041015625,375.7847595214844C370.69208068847655,378.9940243530273,348.88788856506346,377.26455942789715,321.524658203125,372.1972961425781C294.16142784118654,367.1300328572591,270.49924964904784,356.81765116373697,248.87892150878906,348.8789367675781C227.25859336853028,340.9402223714193,224.79969952901203,336.9700920613607,206.72645568847656,330.0448303222656C188.6532118479411,323.1195685831706,175.37966742197673,316.8370793151855,152.914794921875,312.1076354980469C130.44992242177327,307.37819168090823,105.85500727335611,304.08819920857746,87.4439468383789,304.9327392578125C69.0328864034017,305.77727930704754,63.94021066029866,306.1195729064941,55.156951904296875,316.5919189453125C46.37369314829509,327.0642649841309,43.50971605936686,352.26158259073895,40.80717468261719,360.5381164550781" fill="none" stroke-width="5" stroke="url(&quot;#SvgjsLinearGradient1001&quot;)" stroke-linecap="round" transform="matrix(1,0,0,1,6.138328552246094,1.7638683319091797)" stroke-dasharray="34 46" stroke-opacity="0.05"></path><defs><linearGradient id="SvgjsLinearGradient1001" gradientTransform="rotate(116, 0.5, 0.5)"><stop stop-color="hsl(265, 55%, 30%)" offset="0"></stop><stop stop-color="hsl(265, 55%, 60%)" offset="1"></stop></linearGradient></defs></svg>